<svg
  id="visual"
  xmlns="http://www.w3.org/2000/svg"
  viewBox="0 0 900 600"
  width="900"
  height="600"
>
  <rect x="0" y="0" width="900" height="600" fill="transparent" />
  <defs>
    <linearGradient id="grad1_0" x1="33.3%" y1="0%" x2="100%" y2="100%">
      <stop offset="20%" stop-color="#a5a5a5" stop-opacity="1" />
      <stop offset="80%" stop-color="#a5a5a5" stop-opacity="1" />
    </linearGradient>
  </defs>
  <defs>
    <linearGradient id="grad1_1" x1="33.3%" y1="0%" x2="100%" y2="100%">
      <stop offset="20%" stop-color="#a5a5a5" stop-opacity="1" />
      <stop offset="80%" stop-color="#6b6f76" stop-opacity="1" />
    </linearGradient>
  </defs>
  <defs>
    <linearGradient id="grad1_2" x1="33.3%" y1="0%" x2="100%" y2="100%">
      <stop offset="20%" stop-color="#353d4a" stop-opacity="1" />
      <stop offset="80%" stop-color="#6b6f76" stop-opacity="1" />
    </linearGradient>
  </defs>
  <defs>
    <linearGradient id="grad1_3" x1="33.3%" y1="0%" x2="100%" y2="100%">
      <stop offset="20%" stop-color="#353d4a" stop-opacity="1" />
      <stop offset="80%" stop-color="#001122" stop-opacity="1" />
    </linearGradient>
  </defs>
  <defs>
    <linearGradient id="grad2_0" x1="0%" y1="0%" x2="66.7%" y2="100%">
      <stop offset="20%" stop-color="#a5a5a5" stop-opacity="1" />
      <stop offset="80%" stop-color="#a5a5a5" stop-opacity="1" />
    </linearGradient>
  </defs>
  <defs>
    <linearGradient id="grad2_1" x1="0%" y1="0%" x2="66.7%" y2="100%">
      <stop offset="20%" stop-color="#6b6f76" stop-opacity="1" />
      <stop offset="80%" stop-color="#a5a5a5" stop-opacity="1" />
    </linearGradient>
  </defs>
  <defs>
    <linearGradient id="grad2_2" x1="0%" y1="0%" x2="66.7%" y2="100%">
      <stop offset="20%" stop-color="#6b6f76" stop-opacity="1" />
      <stop offset="80%" stop-color="#353d4a" stop-opacity="1" />
    </linearGradient>
  </defs>
  <defs>
    <linearGradient id="grad2_3" x1="0%" y1="0%" x2="66.7%" y2="100%">
      <stop offset="20%" stop-color="#001122" stop-opacity="1" />
      <stop offset="80%" stop-color="#353d4a" stop-opacity="1" />
    </linearGradient>
  </defs>
  <g transform="translate(900, 0)">
    <path d="M0 405.6C-38.9 391.5 -77.8 377.4 -119.3 367.1C-160.7 356.8 -204.8 350.4 -238.4 328.2C-272.1 305.9 -295.4 267.9 -319.6 232.2C-343.7 196.4 -368.8 162.9 -383.3 124.5C-397.8 86.2 -401.7 43.1 -405.6 0L0 0Z" fill="#E8D3FF" />
    <path d="M0 304.2C-29.2 293.6 -58.4 283 -89.5 275.3C-120.6 267.6 -153.6 262.8 -178.8 246.1C-204.1 229.5 -221.5 201 -239.7 174.1C-257.8 147.3 -276.6 122.1 -287.5 93.4C-298.3 64.7 -301.3 32.3 -304.2 0L0 0Z" fill="#C6CFFF" />
    <path d="M0 202.8C-19.5 195.8 -38.9 188.7 -59.6 183.6C-80.4 178.4 -102.4 175.2 -119.2 164.1C-136 153 -147.7 134 -159.8 116.1C-171.9 98.2 -184.4 81.4 -191.6 62.3C-198.9 43.1 -200.8 21.6 -202.8 0L0 0Z" fill="#DEECFF" />
    <path d="M0 101.4C-9.7 97.9 -19.5 94.3 -29.8 91.8C-40.2 89.2 -51.2 87.6 -59.6 82C-68 76.5 -73.8 67 -79.9 58C-85.9 49.1 -92.2 40.7 -95.8 31.1C-99.4 21.6 -100.4 10.8 -101.4 0L0 0Z" fill="#F3F8FF" />
  </g>
</svg>
