<svg xmlns="http://www.w3.org/2000/svg" id="visual" viewBox="0 0 900 450" width="900" height="450" version="1.1">
  <rect x="0" y="0" width="900" height="450" fill="transparent"/>
  <path d="M0 317L21.5 319.5C43 322 86 327 128.8 331.8C171.7 336.7 214.3 341.3 257.2 343.8C300 346.3 343 346.7 385.8 347.7C428.7 348.7 471.3 350.3 514.2 344C557 337.7 600 323.3 642.8 319C685.7 314.7 728.3 320.3 771.2 323.8C814 327.3 857 328.7 878.5 329.3L900 330L900 451L878.5 451C857 451 814 451 771.2 451C728.3 451 685.7 451 642.8 451C600 451 557 451 514.2 451C471.3 451 428.7 451 385.8 451C343 451 300 451 257.2 451C214.3 451 171.7 451 128.8 451C86 451 43 451 21.5 451L0 451Z" fill="#DEECFF"/>
  <path d="M0 340L21.5 347.2C43 354.3 86 368.7 128.8 370.8C171.7 373 214.3 363 257.2 360C300 357 343 361 385.8 366.7C428.7 372.3 471.3 379.7 514.2 382C557 384.3 600 381.7 642.8 376.2C685.7 370.7 728.3 362.3 771.2 361.8C814 361.3 857 368.7 878.5 372.3L900 376L900 451L878.5 451C857 451 814 451 771.2 451C728.3 451 685.7 451 642.8 451C600 451 557 451 514.2 451C471.3 451 428.7 451 385.8 451C343 451 300 451 257.2 451C214.3 451 171.7 451 128.8 451C86 451 43 451 21.5 451L0 451Z" fill="#C6CFFF"/>
  <path d="M0 414L21.5 411.8C43 409.7 86 405.3 128.8 402.8C171.7 400.3 214.3 399.7 257.2 400.5C300 401.3 343 403.7 385.8 404.5C428.7 405.3 471.3 404.7 514.2 408C557 411.3 600 418.7 642.8 421.2C685.7 423.7 728.3 421.3 771.2 420.3C814 419.3 857 419.7 878.5 419.8L900 420L900 451L878.5 451C857 451 814 451 771.2 451C728.3 451 685.7 451 642.8 451C600 451 557 451 514.2 451C471.3 451 428.7 451 385.8 451C343 451 300 451 257.2 451C214.3 451 171.7 451 128.8 451C86 451 43 451 21.5 451L0 451Z" fill="#E8D3FF"/>
</svg>
