<svg xmlns="http://www.w3.org/2000/svg" id="visual" viewBox="0 0 900 450" width="900" height="450" version="1.1">
  <rect x="0" y="0" width="900" height="450" fill="transparent"/>
  <path d="M0 310L21.5 315C43 320 86 330 128.8 336.7C171.7 343.3 214.3 346.7 257.2 343.5C300 340.3 343 330.7 385.8 323C428.7 315.3 471.3 309.7 514.2 307C557 304.3 600 304.7 642.8 310.3C685.7 316 728.3 327 771.2 332.3C814 337.7 857 337.3 878.5 337.2L900 337L900 451L878.5 451C857 451 814 451 771.2 451C728.3 451 685.7 451 642.8 451C600 451 557 451 514.2 451C471.3 451 428.7 451 385.8 451C343 451 300 451 257.2 451C214.3 451 171.7 451 128.8 451C86 451 43 451 21.5 451L0 451Z" fill="#DEECFF"/>
  <path d="M0 344L21.5 350.5C43 357 86 370 128.8 372C171.7 374 214.3 365 257.2 360.3C300 355.7 343 355.3 385.8 355.5C428.7 355.7 471.3 356.3 514.2 360.2C557 364 600 371 642.8 372C685.7 373 728.3 368 771.2 368.2C814 368.3 857 373.7 878.5 376.3L900 379L900 451L878.5 451C857 451 814 451 771.2 451C728.3 451 685.7 451 642.8 451C600 451 557 451 514.2 451C471.3 451 428.7 451 385.8 451C343 451 300 451 257.2 451C214.3 451 171.7 451 128.8 451C86 451 43 451 21.5 451L0 451Z" fill="#C6CFFF"/>
  <path d="M0 392L21.5 395.8C43 399.7 86 407.3 128.8 409.7C171.7 412 214.3 409 257.2 410C300 411 343 416 385.8 415.2C428.7 414.3 471.3 407.7 514.2 404.7C557 401.7 600 402.3 642.8 399.8C685.7 397.3 728.3 391.7 771.2 393.7C814 395.7 857 405.3 878.5 410.2L900 415L900 451L878.5 451C857 451 814 451 771.2 451C728.3 451 685.7 451 642.8 451C600 451 557 451 514.2 451C471.3 451 428.7 451 385.8 451C343 451 300 451 257.2 451C214.3 451 171.7 451 128.8 451C86 451 43 451 21.5 451L0 451Z" fill="#E8D3FF"/>
</svg>
