<svg
  id="visual"
  xmlns="http://www.w3.org/2000/svg"
  viewBox="0 0 900 600"
  width="900"
  height="600"
>
  <rect x="0" y="0" width="900" height="600" fill="transparent" />
  <defs>
    <linearGradient id="grad1_0" x1="33.3%" y1="0%" x2="100%" y2="100%">
      <stop offset="20%" stop-color="#a5a5a5" stop-opacity="1" />
      <stop offset="80%" stop-color="#a5a5a5" stop-opacity="1" />
    </linearGradient>
  </defs>
  <defs>
    <linearGradient id="grad1_1" x1="33.3%" y1="0%" x2="100%" y2="100%">
      <stop offset="20%" stop-color="#a5a5a5" stop-opacity="1" />
      <stop offset="80%" stop-color="#6b6f76" stop-opacity="1" />
    </linearGradient>
  </defs>
  <defs>
    <linearGradient id="grad1_2" x1="33.3%" y1="0%" x2="100%" y2="100%">
      <stop offset="20%" stop-color="#353d4a" stop-opacity="1" />
      <stop offset="80%" stop-color="#6b6f76" stop-opacity="1" />
    </linearGradient>
  </defs>
  <defs>
    <linearGradient id="grad1_3" x1="33.3%" y1="0%" x2="100%" y2="100%">
      <stop offset="20%" stop-color="#353d4a" stop-opacity="1" />
      <stop offset="80%" stop-color="#001122" stop-opacity="1" />
    </linearGradient>
  </defs>
  <defs>
    <linearGradient id="grad2_0" x1="0%" y1="0%" x2="66.7%" y2="100%">
      <stop offset="20%" stop-color="#a5a5a5" stop-opacity="1" />
      <stop offset="80%" stop-color="#a5a5a5" stop-opacity="1" />
    </linearGradient>
  </defs>
  <defs>
    <linearGradient id="grad2_1" x1="0%" y1="0%" x2="66.7%" y2="100%">
      <stop offset="20%" stop-color="#6b6f76" stop-opacity="1" />
      <stop offset="80%" stop-color="#a5a5a5" stop-opacity="1" />
    </linearGradient>
  </defs>
  <defs>
    <linearGradient id="grad2_2" x1="0%" y1="0%" x2="66.7%" y2="100%">
      <stop offset="20%" stop-color="#6b6f76" stop-opacity="1" />
      <stop offset="80%" stop-color="#353d4a" stop-opacity="1" />
    </linearGradient>
  </defs>
  <defs>
    <linearGradient id="grad2_3" x1="0%" y1="0%" x2="66.7%" y2="100%">
      <stop offset="20%" stop-color="#001122" stop-opacity="1" />
      <stop offset="80%" stop-color="#353d4a" stop-opacity="1" />
    </linearGradient>
  </defs>
  <g transform="translate(900, 0)">
    <path d="M0 405.6C-65.1 385.6 -130.2 365.6 -193 334.3C-255.8 303 -316.2 260.4 -351.3 202.8C-386.3 145.2 -396 72.6 -405.6 0L0 0Z" fill="#18122B" />
    <path d="M0 304.2C-48.8 289.2 -97.7 274.2 -144.7 250.7C-191.8 227.2 -237.2 195.3 -263.5 152.1C-289.7 108.9 -297 54.5 -304.2 0L0 0Z" fill="#393053" />
    <path d="M0 202.8C-32.6 192.8 -65.1 182.8 -96.5 167.1C-127.9 151.5 -158.1 130.2 -175.6 101.4C-193.2 72.6 -198 36.3 -202.8 0L0 0Z" fill="#443C68" />
    <path d="M0 101.4C-16.3 96.4 -32.6 91.4 -48.2 83.6C-63.9 75.7 -79.1 65.1 -87.8 50.7C-96.6 36.3 -99 18.2 -101.4 0L0 0Z" fill="#635985" />
  </g>
</svg>
