<svg
  id="visual"
  xmlns="http://www.w3.org/2000/svg"
  viewBox="0 0 900 600"
  width="900"
  height="600"
>
  <rect x="0" y="0" width="900" height="600" fill="transparent" />
  <defs>
    <linearGradient id="grad1_0" x1="33.3%" y1="0%" x2="100%" y2="100%">
      <stop offset="20%" stop-color="#a5a5a5" stop-opacity="1" />
      <stop offset="80%" stop-color="#a5a5a5" stop-opacity="1" />
    </linearGradient>
  </defs>
  <defs>
    <linearGradient id="grad1_1" x1="33.3%" y1="0%" x2="100%" y2="100%">
      <stop offset="20%" stop-color="#a5a5a5" stop-opacity="1" />
      <stop offset="80%" stop-color="#6b6f76" stop-opacity="1" />
    </linearGradient>
  </defs>
  <defs>
    <linearGradient id="grad1_2" x1="33.3%" y1="0%" x2="100%" y2="100%">
      <stop offset="20%" stop-color="#353d4a" stop-opacity="1" />
      <stop offset="80%" stop-color="#6b6f76" stop-opacity="1" />
    </linearGradient>
  </defs>
  <defs>
    <linearGradient id="grad1_3" x1="33.3%" y1="0%" x2="100%" y2="100%">
      <stop offset="20%" stop-color="#353d4a" stop-opacity="1" />
      <stop offset="80%" stop-color="#001122" stop-opacity="1" />
    </linearGradient>
  </defs>
  <defs>
    <linearGradient id="grad2_0" x1="0%" y1="0%" x2="66.7%" y2="100%">
      <stop offset="20%" stop-color="#a5a5a5" stop-opacity="1" />
      <stop offset="80%" stop-color="#a5a5a5" stop-opacity="1" />
    </linearGradient>
  </defs>
  <defs>
    <linearGradient id="grad2_1" x1="0%" y1="0%" x2="66.7%" y2="100%">
      <stop offset="20%" stop-color="#6b6f76" stop-opacity="1" />
      <stop offset="80%" stop-color="#a5a5a5" stop-opacity="1" />
    </linearGradient>
  </defs>
  <defs>
    <linearGradient id="grad2_2" x1="0%" y1="0%" x2="66.7%" y2="100%">
      <stop offset="20%" stop-color="#6b6f76" stop-opacity="1" />
      <stop offset="80%" stop-color="#353d4a" stop-opacity="1" />
    </linearGradient>
  </defs>
  <defs>
    <linearGradient id="grad2_3" x1="0%" y1="0%" x2="66.7%" y2="100%">
      <stop offset="20%" stop-color="#001122" stop-opacity="1" />
      <stop offset="80%" stop-color="#353d4a" stop-opacity="1" />
    </linearGradient>
  </defs>
  <g transform="translate(900, 0)">
    <path d="M0 405.6C-54.7 402 -109.4 398.3 -155.2 374.7C-201 351.2 -238 307.6 -265.2 265.2C-292.4 222.7 -309.9 181.4 -331.7 137.4C-353.5 93.4 -379.5 46.7 -405.6 0L0 0Z" fill="#18122B" />
    <path d="M0 304.2C-41 301.5 -82.1 298.8 -116.4 281.1C-150.8 263.4 -178.5 230.7 -198.9 198.9C-219.3 167 -232.4 136 -248.8 103C-265.1 70 -284.7 35 -304.2 0L0 0Z" fill="#393053" />
    <path d="M0 202.8C-27.4 201 -54.7 199.2 -77.6 187.4C-100.5 175.6 -119 153.8 -132.6 132.6C-146.2 111.4 -154.9 90.7 -165.8 68.7C-176.7 46.7 -189.8 23.3 -202.8 0L0 0Z" fill="#443C68" />
    <path d="M0 101.4C-13.7 100.5 -27.4 99.6 -38.8 93.7C-50.3 87.8 -59.5 76.9 -66.3 66.3C-73.1 55.7 -77.5 45.3 -82.9 34.3C-88.4 23.3 -94.9 11.7 -101.4 0L0 0Z" fill="#635985" />
  </g>
</svg>
