<svg xmlns="http://www.w3.org/2000/svg" id="visual" viewBox="0 0 900 450" width="900" height="450" version="1.1">
  <rect x="0" y="0" width="900" height="450" fill="transparent"/>
  <path d="M0 301L21.5 306.2C43 311.3 86 321.7 128.8 324.2C171.7 326.7 214.3 321.3 257.2 317.2C300 313 343 310 385.8 314.7C428.7 319.3 471.3 331.7 514.2 332.3C557 333 600 322 642.8 319C685.7 316 728.3 321 771.2 319.2C814 317.3 857 308.7 878.5 304.3L900 300L900 451L878.5 451C857 451 814 451 771.2 451C728.3 451 685.7 451 642.8 451C600 451 557 451 514.2 451C471.3 451 428.7 451 385.8 451C343 451 300 451 257.2 451C214.3 451 171.7 451 128.8 451C86 451 43 451 21.5 451L0 451Z" fill="#443C68"/>
  <path d="M0 348L21.5 352.8C43 357.7 86 367.3 128.8 368.5C171.7 369.7 214.3 362.3 257.2 356.3C300 350.3 343 345.7 385.8 345C428.7 344.3 471.3 347.7 514.2 354C557 360.3 600 369.7 642.8 375C685.7 380.3 728.3 381.7 771.2 379.2C814 376.7 857 370.3 878.5 367.2L900 364L900 451L878.5 451C857 451 814 451 771.2 451C728.3 451 685.7 451 642.8 451C600 451 557 451 514.2 451C471.3 451 428.7 451 385.8 451C343 451 300 451 257.2 451C214.3 451 171.7 451 128.8 451C86 451 43 451 21.5 451L0 451Z" fill="#393053"/>
  <path d="M0 426L21.5 419.3C43 412.7 86 399.3 128.8 396C171.7 392.7 214.3 399.3 257.2 399.7C300 400 343 394 385.8 397.3C428.7 400.7 471.3 413.3 514.2 417.7C557 422 600 418 642.8 415.8C685.7 413.7 728.3 413.3 771.2 411.5C814 409.7 857 406.3 878.5 404.7L900 403L900 451L878.5 451C857 451 814 451 771.2 451C728.3 451 685.7 451 642.8 451C600 451 557 451 514.2 451C471.3 451 428.7 451 385.8 451C343 451 300 451 257.2 451C214.3 451 171.7 451 128.8 451C86 451 43 451 21.5 451L0 451Z" fill="#18122B"/>
</svg>
