<svg xmlns="http://www.w3.org/2000/svg" id="visual" viewBox="0 0 900 450" width="900" height="450" version="1.1">
  <rect x="0" y="0" width="900" height="450" fill="transparent"/>
  <path d="M0 318L21.5 317C43 316 86 314 128.8 312.5C171.7 311 214.3 310 257.2 311.8C300 313.7 343 318.3 385.8 320.3C428.7 322.3 471.3 321.7 514.2 326.5C557 331.3 600 341.7 642.8 345.7C685.7 349.7 728.3 347.3 771.2 346.2C814 345 857 345 878.5 345L900 345L900 451L878.5 451C857 451 814 451 771.2 451C728.3 451 685.7 451 642.8 451C600 451 557 451 514.2 451C471.3 451 428.7 451 385.8 451C343 451 300 451 257.2 451C214.3 451 171.7 451 128.8 451C86 451 43 451 21.5 451L0 451Z" fill="#443C68"/>
  <path d="M0 370L21.5 369C43 368 86 366 128.8 367.2C171.7 368.3 214.3 372.7 257.2 375.3C300 378 343 379 385.8 377C428.7 375 471.3 370 514.2 369.7C557 369.3 600 373.7 642.8 374.2C685.7 374.7 728.3 371.3 771.2 370.7C814 370 857 372 878.5 373L900 374L900 451L878.5 451C857 451 814 451 771.2 451C728.3 451 685.7 451 642.8 451C600 451 557 451 514.2 451C471.3 451 428.7 451 385.8 451C343 451 300 451 257.2 451C214.3 451 171.7 451 128.8 451C86 451 43 451 21.5 451L0 451Z" fill="#393053"/>
  <path d="M0 420L21.5 415C43 410 86 400 128.8 397C171.7 394 214.3 398 257.2 398.7C300 399.3 343 396.7 385.8 399.2C428.7 401.7 471.3 409.3 514.2 413.3C557 417.3 600 417.7 642.8 416.8C685.7 416 728.3 414 771.2 412.5C814 411 857 410 878.5 409.5L900 409L900 451L878.5 451C857 451 814 451 771.2 451C728.3 451 685.7 451 642.8 451C600 451 557 451 514.2 451C471.3 451 428.7 451 385.8 451C343 451 300 451 257.2 451C214.3 451 171.7 451 128.8 451C86 451 43 451 21.5 451L0 451Z" fill="#18122B"/>
</svg>
