<svg xmlns="http://www.w3.org/2000/svg" id="visual" viewBox="0 0 900 450" width="900" height="450" version="1.1">
  <rect x="0" y="0" width="900" height="450" fill="transparent"/>
  <path d="M0 337L21.5 336.2C43 335.3 86 333.7 128.8 328.8C171.7 324 214.3 316 257.2 318.2C300 320.3 343 332.7 385.8 340.7C428.7 348.7 471.3 352.3 514.2 352C557 351.7 600 347.3 642.8 341.3C685.7 335.3 728.3 327.7 771.2 320.8C814 314 857 308 878.5 305L900 302L900 451L878.5 451C857 451 814 451 771.2 451C728.3 451 685.7 451 642.8 451C600 451 557 451 514.2 451C471.3 451 428.7 451 385.8 451C343 451 300 451 257.2 451C214.3 451 171.7 451 128.8 451C86 451 43 451 21.5 451L0 451Z" fill="#443C68"/>
  <path d="M0 387L21.5 385C43 383 86 379 128.8 372.8C171.7 366.7 214.3 358.3 257.2 356.3C300 354.3 343 358.7 385.8 358.3C428.7 358 471.3 353 514.2 352.2C557 351.3 600 354.7 642.8 357C685.7 359.3 728.3 360.7 771.2 365.8C814 371 857 380 878.5 384.5L900 389L900 451L878.5 451C857 451 814 451 771.2 451C728.3 451 685.7 451 642.8 451C600 451 557 451 514.2 451C471.3 451 428.7 451 385.8 451C343 451 300 451 257.2 451C214.3 451 171.7 451 128.8 451C86 451 43 451 21.5 451L0 451Z" fill="#393053"/>
  <path d="M0 384L21.5 389C43 394 86 404 128.8 404.2C171.7 404.3 214.3 394.7 257.2 390.5C300 386.3 343 387.7 385.8 388C428.7 388.3 471.3 387.7 514.2 387.3C557 387 600 387 642.8 391.7C685.7 396.3 728.3 405.7 771.2 406.7C814 407.7 857 400.3 878.5 396.7L900 393L900 451L878.5 451C857 451 814 451 771.2 451C728.3 451 685.7 451 642.8 451C600 451 557 451 514.2 451C471.3 451 428.7 451 385.8 451C343 451 300 451 257.2 451C214.3 451 171.7 451 128.8 451C86 451 43 451 21.5 451L0 451Z" fill="#18122B"/>
</svg>
